PathFileType	4	(X/Y/Z)	./resultDataOpenSim/trcMotMarkerGrf/sub09/qtm-02-02.trc
DataRate	CameraRate	NumFrames	NumMarkers	Units	OrigDataRate	OrigDataStartFrame	OrigNumFrames
250.000000	250.000000	12	24	m	250.000000	364	484
Frame#	Time	L.Toe.Tip			R.Toe.Tip			L.Ankle.Lat			R.Ankle.Lat			L.Ankle.Med			R.Ankle.Med			L.Heel			R.Heel			L.Knee.Lat			R.Knee.Lat			L.Knee.Med			R.Knee.Med			L.Thigh.Upper			R.Thigh.Upper			L.ASIS			R.ASIS			V.Sacral			L.Acromium			R.Acromium			C7			L.Elbow			R.Elbow			L.Wrist.Lat			R.Wrist.Lat
		X1	Y1	Z1	X2	Y2	Z2	X3	Y3	Z3	X4	Y4	Z4	X5	Y5	Z5	X6	Y6	Z6	X7	Y7	Z7	X8	Y8	Z8	X9	Y9	Z9	X10	Y10	Z10	X11	Y11	Z11	X12	Y12	Z12	X13	Y13	Z13	X14	Y14	Z14	X15	Y15	Z15	X16	Y16	Z16	X17	Y17	Z17	X18	Y18	Z18	X19	Y19	Z19	X20	Y20	Z20	X21	Y21	Z21	X22	Y22	Z22	X23	Y23	Z23	X24	Y24	Z24

364	1.452	0.79431111	0.10923865	-0.041578432	0.98241589	0.038721798	0.10721961	0.71673095	0.24097964	-0.080869759	0.83412489	0.054088755	0.13853782	0.74218149	0.23348824	0.014155165	0.84566539	0.091794011	0.046876432	0.63761193	0.26043269	-0.037465845	0.76505687	0.034502143	0.088885337	1.0263759	0.50667832	-0.089681395	0.93711443	0.50018585	0.19397547	1.0387724	0.49775917	0.040033326	0.92115896	0.48935588	0.067057692	0.8616308	0.88635287	-0.11886781	0.85167546	0.9004821	0.25169584	0.93005435	0.97745138	-0.060046329	0.93739499	0.98726759	0.17726152	0.76391151	1.0327533	0.057362884	0.91426666	1.434283	-0.10945281	0.89527808	1.4418706	0.22109733	0.83987243	1.4867464	0.054586424	0.764042	1.0956384	-0.17096799	0.7637873	1.0967065	0.31371233	0.90806068	0.87267508	-0.19722385	0.95455309	0.89569632	0.31950305
365	1.456	0.81163812	0.10751616	-0.042045255	0.98243672	0.038665766	0.10716204	0.7307099	0.2373216	-0.080015699	0.83418256	0.054193641	0.13835451	0.75726181	0.22983635	0.014665649	0.84581835	0.091784241	0.046690559	0.65127047	0.25451759	-0.035973015	0.76522682	0.034770015	0.088719015	1.0353308	0.5091284	-0.088921668	0.93827254	0.4997743	0.19372767	1.0567717	0.50102884	0.042629862	0.92280612	0.48919253	0.066868146	0.86744132	0.88749973	-0.11898143	0.85622029	0.90089149	0.25156322	0.93561731	0.97849453	-0.059916181	0.94232542	0.98774159	0.17753079	0.76894169	1.033463	0.057340752	0.91920314	1.4349068	-0.10949576	0.90067498	1.4427644	0.22105832	0.84504373	1.4874506	0.054625239	0.76793079	1.0967937	-0.17090795	0.76926783	1.0974191	0.31406727	0.91113761	0.873384	-0.19814524	0.96152651	0.89754286	0.31896563
366	1.46	0.82899144	0.10574988	-0.042382482	0.98244728	0.038596268	0.10710027	0.74480111	0.23346944	-0.079165466	0.83423862	0.05429238	0.13816714	0.77228716	0.22609204	0.015241031	0.84597196	0.091761091	0.046494271	0.6651399	0.24842912	-0.034580367	0.76540311	0.034934094	0.088681415	1.0441042	0.51151704	-0.088226029	0.93948979	0.49935561	0.19344837	1.0716203	0.50401853	0.044543188	0.92431747	0.48906997	0.06669753	0.87314876	0.88858387	-0.11908676	0.86092876	0.90127354	0.25136999	0.94125016	0.97946436	-0.059843481	0.9472646	0.98817174	0.17779269	0.77396624	1.0341164	0.057313247	0.9241428	1.4354757	-0.10954182	0.90605499	1.4436012	0.22102197	0.85021783	1.4881028	0.054666915	0.77184632	1.0978974	-0.17085983	0.77481936	1.0980869	0.31447487	0.91425624	0.87405642	-0.19904483	0.96846146	0.89932367	0.31842771
367	1.464	0.84642356	0.10397048	-0.042595136	0.98247681	0.038539692	0.10702888	0.75903366	0.22943208	-0.078330401	0.83430747	0.05438605	0.13798076	0.78717882	0.22226353	0.015907784	0.84618138	0.091771283	0.046300394	0.67917128	0.2422267	-0.03328265	0.76566451	0.035000317	0.088765444	1.0526933	0.51382479	-0.087609415	0.94080119	0.49894807	0.19315949	1.0823512	0.50662346	0.045472368	0.92568437	0.48901228	0.066555356	0.87878518	0.8896044	-0.11918577	0.86580467	0.90164067	0.2511084	0.94680269	0.98036838	-0.059767399	0.95221275	0.98855791	0.17804007	0.77897472	1.0346825	0.057280813	0.92908561	1.4359846	-0.10958762	0.91142406	1.4443776	0.22098937	0.85539741	1.4887008	0.054710183	0.77578845	1.0989404	-0.17080826	0.78050351	1.0987221	0.314997	0.91742607	0.87469266	-0.19991441	0.97537611	0.90104058	0.31788032
368	1.468	0.8640944	0.10219953	-0.04270421	0.98255309	0.038516906	0.1069376	0.77342627	0.22522267	-0.077511584	0.8343978	0.054478032	0.13780235	0.80204564	0.21835664	0.016624351	0.84650446	0.09184986	0.046123109	0.69333052	0.2359266	-0.032065392	0.76596182	0.035034558	0.088871552	1.0611113	0.51601546	-0.087067747	0.94224312	0.49857056	0.19288264	1.089603	0.50886408	0.0455446	0.9271336	0.48894365	0.066485539	0.88436341	0.89055374	-0.11927638	0.87083059	0.90201075	0.25077614	0.95217698	0.98121202	-0.059642641	0.95716419	0.98889541	0.17826258	0.78394994	1.0351237	0.057235657	0.93403428	1.4364333	-0.10963243	0.91678372	1.4450923	0.22095824	0.86057894	1.4892511	0.054746647	0.77975421	1.0999152	-0.17074627	0.78628888	1.099314	0.31560731	0.92064585	0.87528651	-0.2007584	0.9822912	0.90269245	0.31731424
369	1.472	0.88214378	0.10041046	-0.042738188	0.98268194	0.038519255	0.10682312	0.78798076	0.22085691	-0.076706869	0.83450959	0.054569666	0.13763651	0.81696909	0.21438986	0.017352101	0.84688316	0.091963723	0.045961912	0.70766326	0.22949267	-0.030946167	0.7661879	0.035104311	0.088880563	1.0693484	0.51808401	-0.086591877	0.94385949	0.4982454	0.1926415	1.0937255	0.51075913	0.044840422	0.9288932	0.48874013	0.066534894	0.88987785	0.89142257	-0.11936216	0.87598696	0.90239772	0.25037551	0.95739642	0.98199341	-0.059476081	0.96211424	0.98918101	0.17845744	0.78889504	1.0354412	0.05717563	0.93899216	1.4368252	-0.10967902	0.92213182	1.4457473	0.22092496	0.8657561	1.4897572	0.054767594	0.78374434	1.1008177	-0.17068334	0.79207217	1.0998376	0.31620765	0.92390912	0.87582906	-0.20158553	0.98920843	0.90427617	0.3167299
370	1.476	0.90052332	0.09855229	-0.042701393	0.98284902	0.038524114	0.10669462	0.8026878	0.21634827	-0.075917369	0.83463929	0.054658394	0.13748407	0.83191793	0.21039221	0.018088604	0.84710982	0.092023678	0.045784147	0.72226465	0.22287882	-0.029964628	0.76630129	0.035226233	0.088760626	1.077383	0.52005771	-0.086173652	0.94570171	0.49799802	0.19246136	1.0953468	0.51236259	0.043514929	0.93091155	0.48836379	0.066696607	0.89532921	0.89220897	-0.11944113	0.88123388	0.90278571	0.24993273	0.96254408	0.98270746	-0.059300632	0.96706667	0.98941817	0.17863124	0.79385401	1.0356996	0.057114074	0.94396007	1.437162	-0.109729	0.92746458	1.4463446	0.22088793	0.87092475	1.490208	0.054771203	0.78776743	1.1016479	-0.17063215	0.79778636	1.1002749	0.31672864	0.92721242	0.87631259	-0.20240157	0.9961093	0.90579178	0.31613526
371	1.48	0.91900658	0.096612853	-0.042560295	0.98302366	0.038515207	0.10657019	0.81754364	0.21170823	-0.075143064	0.83478507	0.054740879	0.13734386	0.8468368	0.20637887	0.018855206	0.84702874	0.091977477	0.045554582	0.73715744	0.21607292	-0.029117405	0.76633138	0.035376234	0.088559011	1.0852355	0.52195238	-0.085793077	0.9478091	0.49784725	0.19236247	1.096665	0.51384957	0.042110416	0.93293208	0.48790823	0.06688532	0.90073066	0.89291741	-0.11951262	0.88646225	0.90309311	0.24954097	0.96767928	0.98335289	-0.059140348	0.97202647	0.98961373	0.17878871	0.79887915	1.0359726	0.057068492	0.94893564	1.4374434	-0.10978262	0.93278042	1.4468833	0.22084704	0.87608446	1.4905901	0.054760579	0.7918381	1.1024107	-0.17059158	0.8034297	1.1006205	0.31715868	0.93055227	0.87673483	-0.20320404	1.0029745	0.90724311	0.31553771
372	1.484	0.93736638	0.094642991	-0.042271929	0.98316387	0.038480263	0.10646706	0.83255403	0.2069489	-0.074376759	0.83494794	0.054815802	0.13721532	0.86176933	0.20233073	0.019665721	0.84676315	0.091884899	0.045300872	0.75225879	0.20910222	-0.028341117	0.76632224	0.03553176	0.088339826	1.0929644	0.52375201	-0.085420757	0.95015927	0.497782	0.19234569	1.1001025	0.51540459	0.04123219	0.93476701	0.48749739	0.067012443	0.90609565	0.89355019	-0.11958547	0.89149121	0.90317461	0.24937597	0.97282403	0.98393363	-0.059009383	0.97698792	0.98977375	0.17892641	0.80398207	1.0362674	0.057040077	0.95391666	1.43767	-0.10983968	0.93808088	1.4473608	0.22080176	0.88123822	1.4909048	0.05474386	0.79596466	1.1031143	-0.17055275	0.80902944	1.1008798	0.31750773	0.93392183	0.87709992	-0.20398478	1.0097997	0.90863228	0.31494024
373	1.488	0.95554958	0.092721401	-0.041822347	0.98324549	0.03842131	0.10639261	0.84772162	0.20208604	-0.073610154	0.83513011	0.054881964	0.13709832	0.87683815	0.19821638	0.020511146	0.8465932	0.091859239	0.04510079	0.76749482	0.2020099	-0.027578395	0.76631332	0.035691021	0.088159472	1.1006109	0.52542375	-0.085043203	0.95261447	0.4977383	0.19238078	1.1060429	0.51704737	0.040990398	0.93640644	0.48717926	0.067072363	0.91143487	0.89410617	-0.11966516	0.89620102	0.90293972	0.24955935	0.97798822	0.98445472	-0.058919014	0.98194468	0.98990302	0.17904197	0.80913004	1.0365343	0.0570096	0.95890274	1.4378431	-0.10989943	0.94336762	1.4477758	0.2207527	0.8863906	1.4911615	0.054737607	0.80013925	1.1037624	-0.17050876	0.81462362	1.1010695	0.31780117	0.93731547	0.8774143	-0.2047436	1.0165911	0.90995642	0.31434283
374	1.492	0.97369227	0.090889064	-0.041231031	0.98328038	0.038362566	0.10634492	0.86304217	0.19714002	-0.072844265	0.83533235	0.054936234	0.13699045	0.89211172	0.19403341	0.021366847	0.84664418	0.091946537	0.044992623	0.78285995	0.19484199	-0.026811006	0.76632783	0.035863449	0.088043647	1.1081655	0.52693867	-0.084673744	0.95496255	0.49762396	0.19242705	1.1132598	0.51866689	0.041092073	0.93792934	0.48693019	0.067118086	0.91676066	0.89458511	-0.11975272	0.90070865	0.90251336	0.24995562	0.98317547	0.98492139	-0.058872248	0.98690789	0.99000216	0.17914096	0.81427701	1.0367341	0.056955682	0.96389505	1.437963	-0.10996243	0.94864534	1.4481291	0.22070375	0.89154776	1.4913619	0.054765091	0.80434677	1.1043454	-0.17045567	0.8202363	1.1012056	0.31808408	0.94073687	0.87767505	-0.20548958	1.0233533	0.91121076	0.3137442
375	1.496	0.99195166	0.089123363	-0.04052929	0.98328949	0.03832488	0.10632146	0.87851359	0.1921291	-0.072085927	0.83555168	0.05497655	0.1368883	0.90757483	0.18981216	0.022192063	0.84683941	0.092103733	0.044951468	0.79837282	0.18764258	-0.026037563	0.76635118	0.036058561	0.087954885	1.115588	0.52828661	-0.084328652	0.95707819	0.49739631	0.19247311	1.1206676	0.52015801	0.041267731	0.93938552	0.4867232	0.067185885	0.92208034	0.89498665	-0.11985261	0.9052901	0.9021578	0.25026761	0.9883758	0.98533369	-0.05886027	0.99189433	0.99006582	0.17922656	0.81940511	1.0368724	0.056881009	0.96889781	1.4380294	-0.11002954	0.95392177	1.4484252	0.22065695	0.89671625	1.4915021	0.054838951	0.80857978	1.1048493	-0.17040296	0.82587388	1.1012925	0.31839924	0.94420088	0.87786488	-0.20622636	1.0300845	0.91239318	0.31314149
